<?xml version="1.0" encoding="UTF-8" standalone="no"?>
<!-- Created with Inkscape (http://www.inkscape.org/) -->

<svg
   width="256"
   height="256"
   viewBox="0 0 67.733332 67.733333"
   version="1.1"
   id="svg1"
   xmlns="http://www.w3.org/2000/svg"
   xmlns:svg="http://www.w3.org/2000/svg">
  <defs
     id="defs1" />
  <g
     id="layer1">
    <path
       id="path3"
       style="color:#000000;fill:#0052b1;stroke:none;-inkscape-stroke:none;fill-opacity:1"
       d="M 6.1706828 8.7818929 L 6.1706828 17.24856 L 27.667045 17.24856 C 27.679695 21.650835 27.730124 34.258544 27.572994 41.935942 C 27.530384 44.017681 27.037441 46.288957 25.918831 47.758325 C 24.800222 49.227695 23.117571 50.484774 18.514632 50.484774 C 14.024141 50.484774 13.099218 49.516645 12.053528 47.418294 C 11.007838 45.319942 10.58075 41.296022 10.58075 36.555391 L 2.1140828 36.555391 C 2.1140828 41.601125 2.2167323 46.659744 4.4772461 51.195841 C 6.73776 55.731941 11.89628 58.95144 18.514632 58.95144 C 25.020542 58.95144 29.932093 56.464425 32.655371 52.887211 C 35.37865 49.309998 35.974181 45.231601 36.03811 42.108024 C 36.128561 37.68867 36.155977 30.914545 36.162134 24.995374 L 36.133712 8.7818929 L 6.1706828 8.7818929 z " />
    <path
       style="fill:#2595ff;stroke:none;stroke-width:0.264583px;stroke-linecap:butt;stroke-linejoin:miter;stroke-opacity:1;fill-opacity:1"
       d="m 36.133711,8.7818927 0.02842,16.2134813 21.515482,33.956065 h 7.42487 L 64.892679,8.7818927 h -8.114234 l 0.382407,34.5379413 z"
       id="path5" />
  </g>
</svg>
